<svg id="goldbelly" viewBox="0 0 226.3 50.2" width="100%" height="100%">
<title>Goldbelly</title>
<path d="M27 15.8l-11.2 1.8.4 2.4c-2.3-1.6-5.1-2.2-7.9-1.6-.2 0-.5.1-.7.1-5.3 1.3-8.6 6.7-7.4 12 .8 4.7 4.8 8.2 9.5 8.4-3.2 1.6-4.7 4.2-4.1 6.9.7 3.2 3.9 5.4 12.8 3.8C28 48 31.3 43.7 30 34.9c-1-6.3-2-12.7-3-19.1zM11.6 29.3c-.4-1.9.6-3.8 2.4-4.1h.1c1.8-.2 3.4 1.2 3.6 3 .3 2-.6 3.9-2.4 4.2-1.9.3-3.4-1.1-3.7-3.1zm6.2 14.1c-.1 0-.3.1-.4.1-1.1 0-2-.8-2-1.9-.6-3 3.7-4.2 3.7-4.2l.5 3c.3 1.8-.4 2.8-1.8 3zM44 12.8c-8 1-14.1 6.4-13 13.9 1.2 7.6 8.3 11 15.9 10 7.5-1 13.6-6 12.9-13.6-.7-7.5-7.8-11.3-15.8-10.3zm1.9 16c-2 .3-3.6-1.4-3.9-3.6s.8-4.2 2.9-4.4c2-.3 3.6 1.5 3.9 3.6.2 2.1-.9 4.1-2.9 4.4zM72.5 1.5l2.2 32-11.3.9c-1-10.6-1.9-21.3-2.9-31.9 4-.5 8-.8 12-1zM92.9.3c.1 3.8.2 7.5.4 11.3a8.24 8.24 0 0 0-6.6-2.5c-6.4.3-10.4 6-9.9 12.6.4 6.6 4.8 11.8 10.6 11.5a9.2 9.2 0 0 0 7-3.8l.1 2.9 10.8-.3c-.2-10.7-.3-21.3-.4-32l-12 .3zm-1.6 24.5c-2 .1-3.4-1.6-3.5-3.7s1.2-3.9 3.2-4 3.4 1.6 3.5 3.7c.1 2.2-1.2 3.9-3.2 4zm36.1-16.2c-2.6-.1-5.2.9-7 2.8.1-3.8.1-7.6.2-11.4h-11.9l.2 32.1c3.6-.1 7.2-.1 10.9 0v-2.9c1.7 2.2 4.3 3.6 7.1 3.7 5.9.2 10.1-5.1 10.4-11.7.2-6.8-3.8-12.3-9.9-12.6zm-4.8 15.9c-2 0-3.3-1.8-3.3-3.9s1.4-3.8 3.4-3.8 3.3 1.8 3.3 3.9c-.1 2.1-1.5 3.8-3.4 3.8zm30.5-14.6c-7.2-.5-13.5 3.8-13.8 11-.4 8.4 5.8 12.6 13.3 13.1 3.4.3 6.8 0 10.1-.8l-.6-6.6c-2 .5-4.2.7-6.3.6-3-.2-5.5-.9-6.3-2.9 5 .3 10 .7 14.9 1.2 2-8-1.1-14.8-11.3-15.6zm-3.5 9.3c.5-1.6 1.5-2.9 3.3-2.8s2.5 1.6 2.6 3.2l-5.9-.4zm19.7-16.3c4 .4 7.9.8 11.9 1.3-1.3 10.6-2.6 21.2-3.8 31.8-3.7-.5-7.5-.9-11.2-1.2.9-10.7 2-21.3 3.1-31.9zm27.5 3.5L192 38.1c-3.7-.6-7.5-1.1-11.2-1.6 1.4-10.6 2.7-21.2 4.1-31.8 4 .6 7.9 1.1 11.9 1.7zm17.9 12.4c-.8 4.1-1.5 8.2-2.3 12.2-.2 1.2-1.3 1.9-2.5 1.7s-1.9-1.3-1.7-2.5l2.1-12.3c-3.9-.7-7.8-1.3-11.6-2-.7 4.6-1.5 9.2-2.2 13.7-.5 3.5 1.2 6 5.1 6.9-3.4.5-5.5 2.4-5.9 5-.5 3.3 1.7 6.5 10.6 8 9.5 1.7 14.1-1.1 16-9.7l3.9-18.9-11.5-2.1zm-4.2 22.7c-.3 1.4-1 2.4-2.6 2.1-.1 0-.3 0-.4-.1-.9-.3-1.5-1.3-1.1-2.3.5-3 4.7-2.8 4.7-2.8l-.6 3.1z"></path>
</svg>